<svg width="31" height="32" xmlns="http://www.w3.org/2000/svg" xmlns:xlink="http://www.w3.org/1999/xlink" xml:space="preserve" overflow="hidden"><defs><clipPath id="clip0"><rect x="1042" y="272" width="31" height="32"/></clipPath><clipPath id="clip1"><rect x="1043" y="273" width="30" height="30"/></clipPath><clipPath id="clip2"><rect x="1043" y="273" width="30" height="30"/></clipPath><clipPath id="clip3"><rect x="1043" y="273" width="30" height="30"/></clipPath></defs><g clip-path="url(#clip0)" transform="translate(-1042 -272)"><g clip-path="url(#clip1)"><g clip-path="url(#clip2)"><g clip-path="url(#clip3)"><path d="M1057.98 277.375C1055.81 277.373 1053.78 278.451 1052.57 280.25 1051.36 282.045 1051.1 284.324 1051.89 286.345L1054.85 292.91 1057.42 298.285C1057.58 298.595 1057.96 298.718 1058.27 298.558 1058.39 298.498 1058.48 298.402 1058.54 298.285L1061.1 292.91 1064.07 286.345C1064.86 284.324 1064.6 282.047 1063.39 280.252 1062.18 278.452 1060.15 277.373 1057.98 277.375ZM1063.5 286.106 1060.54 292.642 1057.98 298.006 1057.97 298.006 1055.42 292.653 1052.46 286.106C1051.76 284.278 1051.99 282.221 1053.09 280.599 1054.91 277.9 1058.58 277.187 1061.27 279.007 1061.9 279.432 1062.45 279.974 1062.87 280.604 1063.97 282.224 1064.2 284.28 1063.5 286.106Z" fill="#000000" fill-rule="nonzero" fill-opacity="1"/><path d="M1057.98 281.125C1056.43 281.125 1055.17 282.384 1055.17 283.938 1055.17 285.491 1056.43 286.75 1057.98 286.75 1059.53 286.75 1060.79 285.491 1060.79 283.938 1060.8 282.39 1059.55 281.131 1058 281.125 1057.99 281.125 1057.99 281.125 1057.98 281.125ZM1057.98 286.127C1056.77 286.127 1055.79 285.147 1055.79 283.939 1055.79 282.731 1056.77 281.752 1057.98 281.752 1059.19 281.752 1060.17 282.731 1060.17 283.939 1060.18 285.134 1059.22 286.114 1058.03 286.128 1058.01 286.128 1057.99 286.128 1057.98 286.128Z" fill="#000000" fill-rule="nonzero" fill-opacity="1"/></g></g></g></g></svg>