<svg width="70" height="80" xmlns="http://www.w3.org/2000/svg" xmlns:xlink="http://www.w3.org/1999/xlink" xml:space="preserve" overflow="hidden"><defs><clipPath id="clip0"><rect x="170" y="369" width="70" height="80"/></clipPath><clipPath id="clip1"><rect x="171" y="370" width="68" height="79"/></clipPath><clipPath id="clip2"><rect x="171" y="370" width="68" height="79"/></clipPath><clipPath id="clip3"><rect x="171" y="370" width="68" height="79"/></clipPath><clipPath id="clip4"><rect x="171" y="370" width="68" height="79"/></clipPath></defs><g clip-path="url(#clip0)" transform="translate(-170 -369)"><g clip-path="url(#clip1)"><g clip-path="url(#clip2)"><g clip-path="url(#clip3)"><g clip-path="url(#clip4)"><path d="M321.46 473.143C314.917 475.068 310.491 481.131 310.491 487.867L341.283 487.867C341.283 480.65 336.279 474.491 329.351 472.855 327.042 461.211 316.264 453.224 304.428 454.283 292.592 455.438 283.547 465.445 283.547 477.282L283.547 531.17 291.245 531.17 291.245 477.282C291.341 469.679 296.923 463.232 304.525 462.174 312.126 461.115 319.343 465.734 321.46 473.143Z" fill="#BFBFBF" fill-rule="evenodd" fill-opacity="1" transform="matrix(1 0 0 1.0094 -112.547 -88.459)"/><path d="M342.245 492.038 309.528 492.038C307.892 492.038 306.642 493.289 306.642 494.924 306.642 496.56 307.892 497.811 309.528 497.811L342.245 497.811C343.881 497.811 345.132 496.56 345.132 494.924 345.132 493.289 343.881 492.038 342.245 492.038Z" fill="#BFBFBF" fill-rule="evenodd" fill-opacity="1" transform="matrix(1 0 0 1.0094 -112.547 -88.459)"/><path d="M326.528 531.811C325.47 531.811 324.604 530.936 324.604 529.866L324.604 503.605C324.604 502.535 325.47 501.66 326.528 501.66 327.587 501.66 328.453 502.535 328.453 503.605L328.453 529.866C328.453 530.936 327.587 531.811 326.528 531.811Z" fill="#4472C4" fill-rule="evenodd" fill-opacity="1" transform="matrix(1 0 0 1.0094 -112.547 -88.459)"/><path d="M338.544 531.17C337.509 531.17 336.578 530.497 336.474 529.537L332.334 503.899C332.127 502.842 332.955 501.882 334.094 501.69 335.232 501.498 336.267 502.266 336.474 503.323L340.615 528.961C340.718 529.442 340.511 530.018 340.201 530.401 339.89 530.786 339.373 531.074 338.855 531.17L338.544 531.17Z" fill="#4472C4" fill-rule="evenodd" fill-opacity="1" transform="matrix(1 0 0 1.0094 -112.547 -88.459)"/><path d="M349.635 530.528C348.816 530.528 348.087 529.945 347.905 529.167L340.711 504.078C340.438 503.106 340.985 502.036 341.986 501.744 342.897 501.453 343.898 501.939 344.263 502.911L351.456 528C351.638 528.583 351.547 529.264 351.183 529.75 350.728 530.236 350.181 530.528 349.635 530.528Z" fill="#4472C4" fill-rule="evenodd" fill-opacity="1" transform="matrix(1 0 0 1.0094 -112.547 -88.459)"/><path d="M314.98 531.17 314.693 531.17C313.64 530.978 312.97 530.018 313.066 528.961L316.895 503.323C317.087 502.266 318.044 501.498 319.098 501.69 320.151 501.882 320.917 502.842 320.725 503.899L316.895 529.537C316.8 530.497 315.938 531.17 314.98 531.17Z" fill="#4472C4" fill-rule="evenodd" fill-opacity="1" transform="matrix(1 0 0 1.0094 -112.547 -88.459)"/><path d="M303.444 530.528C302.864 530.528 302.283 530.236 301.896 529.75 301.509 529.264 301.413 528.583 301.606 528L309.247 502.911C309.634 501.939 310.602 501.453 311.665 501.744 312.633 502.036 313.213 503.106 313.019 504.078L305.378 529.167C305.088 529.945 304.314 530.528 303.444 530.528Z" fill="#4472C4" fill-rule="evenodd" fill-opacity="1" transform="matrix(1 0 0 1.0094 -112.547 -88.459)"/></g></g></g></g></g></svg>